<mxfile host="Electron" agent="Mozilla/5.0 (Windows NT 10.0; Win64; x64) AppleWebKit/537.36 (KHTML, like Gecko) draw.io/26.1.1 Chrome/132.0.6834.210 Electron/34.3.3 Safari/537.36" version="26.1.1">
  <diagram name="Page-1" id="efa7a0a1-bf9b-a30e-e6df-94a7791c09e9">
    <mxGraphModel dx="1434" dy="844" grid="1" gridSize="10" guides="1" tooltips="1" connect="1" arrows="1" fold="1" page="1" pageScale="1" pageWidth="2339" pageHeight="3300" background="none" math="0" shadow="0">
      <root>
        <mxCell id="0" />
        <mxCell id="1" parent="0" />
        <mxCell id="YoGOPwUpyZbq-qjVDjEg-136" style="edgeStyle=orthogonalEdgeStyle;rounded=0;orthogonalLoop=1;jettySize=auto;html=1;" edge="1" parent="1" source="YoGOPwUpyZbq-qjVDjEg-115">
          <mxGeometry relative="1" as="geometry">
            <mxPoint x="1050" y="320" as="targetPoint" />
          </mxGeometry>
        </mxCell>
        <mxCell id="YoGOPwUpyZbq-qjVDjEg-115" value="trigger" style="rounded=1;whiteSpace=wrap;html=1;fillColor=#dae8fc;strokeColor=#6c8ebf;" vertex="1" parent="1">
          <mxGeometry x="860" y="290" width="120" height="60" as="geometry" />
        </mxCell>
        <mxCell id="YoGOPwUpyZbq-qjVDjEg-116" value="executor" style="rounded=1;whiteSpace=wrap;html=1;fillColor=#d5e8d4;strokeColor=#82b366;" vertex="1" parent="1">
          <mxGeometry x="1220" y="292.5" width="120" height="60" as="geometry" />
        </mxCell>
        <mxCell id="YoGOPwUpyZbq-qjVDjEg-117" value="webServer" style="rounded=1;whiteSpace=wrap;html=1;fillColor=#f5f5f5;fontColor=#333333;strokeColor=#666666;" vertex="1" parent="1">
          <mxGeometry x="290" y="300" width="80" height="40" as="geometry" />
        </mxCell>
        <mxCell id="YoGOPwUpyZbq-qjVDjEg-118" value="migratorApp" style="rounded=1;whiteSpace=wrap;html=1;fillColor=#f8cecc;strokeColor=#b85450;" vertex="1" parent="1">
          <mxGeometry x="420" y="300" width="80" height="40" as="geometry" />
        </mxCell>
        <mxCell id="YoGOPwUpyZbq-qjVDjEg-119" value="schedulerApp" style="rounded=1;whiteSpace=wrap;html=1;fillColor=#e1d5e7;strokeColor=#9673a6;" vertex="1" parent="1">
          <mxGeometry x="560" y="300" width="80" height="40" as="geometry" />
        </mxCell>
        <mxCell id="YoGOPwUpyZbq-qjVDjEg-120" value="" style="endArrow=classic;html=1;rounded=0;" edge="1" parent="1" target="YoGOPwUpyZbq-qjVDjEg-118">
          <mxGeometry width="50" height="50" relative="1" as="geometry">
            <mxPoint x="460" y="250" as="sourcePoint" />
            <mxPoint x="620" y="420" as="targetPoint" />
          </mxGeometry>
        </mxCell>
        <mxCell id="YoGOPwUpyZbq-qjVDjEg-122" value="&lt;span style=&quot;font-size: 12px; background-color: rgb(251, 251, 251);&quot;&gt;timer.tick&lt;/span&gt;" style="edgeLabel;html=1;align=center;verticalAlign=middle;resizable=0;points=[];" vertex="1" connectable="0" parent="YoGOPwUpyZbq-qjVDjEg-120">
          <mxGeometry x="-0.4179" y="-1" relative="1" as="geometry">
            <mxPoint as="offset" />
          </mxGeometry>
        </mxCell>
        <mxCell id="YoGOPwUpyZbq-qjVDjEg-123" value="MySQL" style="shape=cylinder3;whiteSpace=wrap;html=1;boundedLbl=1;backgroundOutline=1;size=15;fillColor=#60a917;fontColor=#ffffff;strokeColor=#2D7600;" vertex="1" parent="1">
          <mxGeometry x="400" y="400" width="60" height="50" as="geometry" />
        </mxCell>
        <mxCell id="YoGOPwUpyZbq-qjVDjEg-125" value="Redis" style="shape=cylinder3;whiteSpace=wrap;html=1;boundedLbl=1;backgroundOutline=1;size=15;fillColor=#1ba1e2;fontColor=#ffffff;strokeColor=#006EAF;" vertex="1" parent="1">
          <mxGeometry x="580" y="400" width="60" height="50" as="geometry" />
        </mxCell>
        <mxCell id="YoGOPwUpyZbq-qjVDjEg-126" value="" style="endArrow=classic;html=1;rounded=0;" edge="1" parent="1">
          <mxGeometry width="50" height="50" relative="1" as="geometry">
            <mxPoint x="220" y="320" as="sourcePoint" />
            <mxPoint x="290" y="320" as="targetPoint" />
          </mxGeometry>
        </mxCell>
        <mxCell id="YoGOPwUpyZbq-qjVDjEg-127" value="HTTP API" style="edgeLabel;html=1;align=center;verticalAlign=middle;resizable=0;points=[];" vertex="1" connectable="0" parent="YoGOPwUpyZbq-qjVDjEg-126">
          <mxGeometry x="-0.2857" y="1" relative="1" as="geometry">
            <mxPoint x="-25" y="1" as="offset" />
          </mxGeometry>
        </mxCell>
        <mxCell id="YoGOPwUpyZbq-qjVDjEg-129" style="edgeStyle=orthogonalEdgeStyle;rounded=0;orthogonalLoop=1;jettySize=auto;html=1;entryX=0;entryY=1;entryDx=0;entryDy=-15;entryPerimeter=0;" edge="1" parent="1" source="YoGOPwUpyZbq-qjVDjEg-117" target="YoGOPwUpyZbq-qjVDjEg-123">
          <mxGeometry relative="1" as="geometry">
            <Array as="points">
              <mxPoint x="330" y="435" />
            </Array>
          </mxGeometry>
        </mxCell>
        <mxCell id="YoGOPwUpyZbq-qjVDjEg-130" value="增删差改" style="edgeLabel;html=1;align=center;verticalAlign=middle;resizable=0;points=[];" vertex="1" connectable="0" parent="YoGOPwUpyZbq-qjVDjEg-129">
          <mxGeometry x="-0.4644" relative="1" as="geometry">
            <mxPoint as="offset" />
          </mxGeometry>
        </mxCell>
        <mxCell id="YoGOPwUpyZbq-qjVDjEg-133" value="mq（redis）" style="strokeWidth=2;html=1;shape=mxgraph.flowchart.direct_data;whiteSpace=wrap;fillColor=#fff2cc;strokeColor=#d6b656;" vertex="1" parent="1">
          <mxGeometry x="710" y="300" width="90" height="40" as="geometry" />
        </mxCell>
        <mxCell id="YoGOPwUpyZbq-qjVDjEg-134" value="mq（redis）" style="strokeWidth=2;html=1;shape=mxgraph.flowchart.direct_data;whiteSpace=wrap;fillColor=#fff2cc;strokeColor=#d6b656;" vertex="1" parent="1">
          <mxGeometry x="1060" y="305" width="90" height="35" as="geometry" />
        </mxCell>
        <mxCell id="YoGOPwUpyZbq-qjVDjEg-139" style="edgeStyle=orthogonalEdgeStyle;rounded=0;orthogonalLoop=1;jettySize=auto;html=1;entryX=1;entryY=0.5;entryDx=0;entryDy=0;entryPerimeter=0;" edge="1" parent="1" source="YoGOPwUpyZbq-qjVDjEg-116" target="YoGOPwUpyZbq-qjVDjEg-134">
          <mxGeometry relative="1" as="geometry" />
        </mxCell>
        <mxCell id="YoGOPwUpyZbq-qjVDjEg-142" style="edgeStyle=orthogonalEdgeStyle;rounded=0;orthogonalLoop=1;jettySize=auto;html=1;entryX=1;entryY=0.5;entryDx=0;entryDy=0;entryPerimeter=0;" edge="1" parent="1" source="YoGOPwUpyZbq-qjVDjEg-115" target="YoGOPwUpyZbq-qjVDjEg-133">
          <mxGeometry relative="1" as="geometry" />
        </mxCell>
        <mxCell id="YoGOPwUpyZbq-qjVDjEg-143" style="edgeStyle=orthogonalEdgeStyle;rounded=0;orthogonalLoop=1;jettySize=auto;html=1;entryX=0;entryY=0.5;entryDx=0;entryDy=0;entryPerimeter=0;" edge="1" parent="1" source="YoGOPwUpyZbq-qjVDjEg-119" target="YoGOPwUpyZbq-qjVDjEg-133">
          <mxGeometry relative="1" as="geometry" />
        </mxCell>
      </root>
    </mxGraphModel>
  </diagram>
</mxfile>
